{
    "asset" : {
        "generator" : "Khronos glTF Blender I/O v1.7.33",
        "version" : "2.0"
    },
    "scene" : 0,
    "scenes" : [
        {
            "name" : "Scene",
            "nodes" : [
                0
            ]
        }
    ],
    "nodes" : [
        {
            "mesh" : 0,
            "name" : "rp_dennis_posed_004_30k",
            "rotation" : [
                0.7071068286895752,
                0,
                0,
                0.7071067094802856
            ],
            "scale" : [
                0.009999999776482582,
                0.009999999776482582,
                0.009999999776482582
            ]
        }
    ],
    "materials" : [
        {
            "doubleSided" : true,
            "name" : "rp_dennis_posed_004",
            "pbrMetallicRoughness" : {}
        }
    ],
    "meshes" : [
        {
            "name" : "rp_dennis_posed_004_30k",
            "primitives" : [
                {
                    "attributes" : {
                        "POSITION" : 0,
                        "NORMAL" : 1,
                        "TEXCOORD_0" : 2
                    },
                    "indices" : 3,
                    "material" : 0
                }
            ]
        }
    ],
    "accessors" : [
        {
            "bufferView" : 0,
            "componentType" : 5126,
            "count" : 17201,
            "max" : [
                28.99209976196289,
                22.49169921875,
                0.9965999722480774
            ],
            "min" : [
                -35.19089889526367,
                -22.498600006103516,
                -186.1157989501953
            ],
            "type" : "VEC3"
        },
        {
            "bufferView" : 1,
            "componentType" : 5126,
            "count" : 17201,
            "type" : "VEC3"
        },
        {
            "bufferView" : 2,
            "componentType" : 5126,
            "count" : 17201,
            "type" : "VEC2"
        },
        {
            "bufferView" : 3,
            "componentType" : 5123,
            "count" : 90117,
            "type" : "SCALAR"
        }
    ],
    "bufferViews" : [
        {
            "buffer" : 0,
            "byteLength" : 206412,
            "byteOffset" : 0
        },
        {
            "buffer" : 0,
            "byteLength" : 206412,
            "byteOffset" : 206412
        },
        {
            "buffer" : 0,
            "byteLength" : 137608,
            "byteOffset" : 412824
        },
        {
            "buffer" : 0,
            "byteLength" : 180234,
            "byteOffset" : 550432
        }
    ],
    "buffers" : [
        {
            "byteLength" : 730668,
            "uri" : "Persona.bin"
        }
    ]
}
